<?xml version="1.0" standalone="no"?>
<!DOCTYPE svg PUBLIC "-//W3C//DTD SVG 20010904//EN"
 "http://www.w3.org/TR/2001/REC-SVG-20010904/DTD/svg10.dtd">
<svg version="1.0" xmlns="http://www.w3.org/2000/svg"
 width="97.000000pt" height="96.000000pt" viewBox="0 0 97.000000 96.000000"
 preserveAspectRatio="xMidYMid meet">

<g transform="translate(0.000000,96.000000) scale(0.100000,-0.100000)"
fill="#000000" stroke="none">
<path d="M281 696 c-194 -194 -195 -195 -176 -216 l19 -20 33 32 33 32 0 -127
0 -127 -46 0 -45 0 7 -47 c5 -40 20 -83 42 -125 2 -5 -8 -12 -23 -18 -21 -8
-26 -16 -23 -38 2 -22 7 -26 28 -24 14 2 39 12 56 23 40 24 59 24 102 -3 45
-27 110 -27 156 1 42 26 60 26 104 -1 45 -27 110 -27 156 1 41 26 60 26 100 2
17 -11 42 -21 56 -23 21 -2 26 2 28 24 3 22 -2 30 -23 38 -15 6 -25 13 -23 18
23 44 37 85 43 125 l7 47 -46 0 -46 0 0 127 0 127 33 -32 33 -32 19 20 c18 20
18 21 -33 73 l-52 53 0 87 0 87 -35 0 -35 0 0 -52 0 -52 -109 107 c-59 59
-116 107 -126 107 -11 0 -102 -82 -214 -194z m449 -263 l0 -163 -55 0 -55 0 0
64 c0 49 -5 69 -21 90 -19 24 -26 26 -104 26 -78 0 -85 -2 -104 -26 -16 -21
-21 -41 -21 -90 l0 -64 -55 0 -55 0 0 162 0 163 117 117 118 118 117 -117 118
-118 0 -162z m-180 -103 l0 -60 -55 0 -55 0 0 60 0 60 55 0 55 0 0 -60z m270
-132 c0 -7 -9 -28 -20 -45 -15 -25 -27 -33 -48 -33 -15 0 -44 -9 -65 -20 -47
-25 -77 -25 -124 0 -48 25 -88 25 -136 0 -47 -25 -77 -25 -124 0 -21 11 -50
20 -65 20 -21 0 -33 8 -48 33 -11 17 -20 38 -20 45 0 9 72 12 325 12 253 0
325 -3 325 -12z"/>
<path d="M449 675 c-67 -36 -51 -141 23 -159 100 -25 158 112 67 159 -35 18
-56 18 -90 0z m66 -75 c0 -29 -32 -41 -41 -16 -9 24 4 48 23 44 12 -2 18 -12
18 -28z"/>
</g>
</svg>
