<?xml version="1.0" standalone="no"?>
<!DOCTYPE svg PUBLIC "-//W3C//DTD SVG 20010904//EN"
 "http://www.w3.org/TR/2001/REC-SVG-20010904/DTD/svg10.dtd">
<svg version="1.0" xmlns="http://www.w3.org/2000/svg"
 width="96.000000pt" height="96.000000pt" viewBox="0 0 96.000000 96.000000"
 preserveAspectRatio="xMidYMid meet">

<g transform="translate(0.000000,96.000000) scale(0.100000,-0.100000)"
fill="#000000" stroke="none">
<path d="M192 918 c-9 -9 -12 -109 -12 -390 l0 -378 -60 0 -60 0 0 -30 0 -30
60 0 60 0 0 -30 c0 -27 3 -30 30 -30 27 0 30 3 30 30 l0 30 240 0 240 0 0 -30
c0 -27 3 -30 30 -30 27 0 30 3 30 30 l0 30 60 0 60 0 0 30 0 30 -60 0 -60 0 0
375 0 375 -30 0 -30 0 0 -95 c0 -52 -2 -95 -5 -95 -3 0 -116 50 -252 110 -136
61 -250 110 -253 110 -3 0 -11 -5 -18 -12z m293 -172 l230 -103 3 -246 2 -247
-45 0 -45 0 0 175 c0 223 6 215 -150 215 -156 0 -150 8 -150 -215 l0 -175 -45
0 -45 0 0 350 c0 193 3 350 8 349 4 0 111 -46 237 -103z m85 -371 l0 -105 -90
0 -90 0 0 105 0 105 90 0 90 0 0 -105z m0 -195 l0 -30 -90 0 -90 0 0 30 0 30
90 0 90 0 0 -30z"/>
<path d="M310 704 c-11 -12 -10 -18 3 -32 16 -15 18 -15 34 0 13 14 14 20 3
32 -7 9 -16 16 -20 16 -4 0 -13 -7 -20 -16z"/>
</g>
</svg>
