<?xml version="1.0" standalone="no"?>
<!DOCTYPE svg PUBLIC "-//W3C//DTD SVG 20010904//EN"
 "http://www.w3.org/TR/2001/REC-SVG-20010904/DTD/svg10.dtd">
<svg version="1.0" xmlns="http://www.w3.org/2000/svg"
 width="96.000000pt" height="96.000000pt" viewBox="0 0 96.000000 96.000000"
 preserveAspectRatio="xMidYMid meet">

<g transform="translate(0.000000,96.000000) scale(0.100000,-0.100000)"
fill="#000000" stroke="none">
<path d="M462 918 c-8 -8 -12 -65 -12 -192 l0 -179 -190 -254 c-104 -139 -190
-255 -190 -258 0 -3 15 -5 33 -5 29 1 39 10 106 102 l75 101 24 -29 c57 -68
73 -84 82 -84 5 0 37 34 71 75 l62 75 62 0 63 0 88 -120 c82 -109 92 -119 122
-120 17 0 32 2 32 5 0 3 -86 119 -190 258 l-190 254 0 71 0 72 44 0 c26 0 48
-6 56 -15 16 -19 140 -21 158 -3 16 16 16 200 0 216 -7 7 -33 12 -59 12 -29 0
-51 6 -59 15 -16 19 -170 21 -188 3z m138 -108 l0 -60 -45 0 -45 0 0 60 0 60
45 0 45 0 0 -60z m120 -30 l0 -60 -30 0 -30 0 0 60 0 60 30 0 30 0 0 -60z
m-178 -368 l57 -77 -49 -3 c-52 -3 -45 3 -151 -126 -8 -10 -55 39 -65 67 -4
12 17 49 68 117 40 55 75 99 78 99 3 0 31 -34 62 -77z"/>
</g>
</svg>
